<?xml version="1.0" standalone="no"?>
<!DOCTYPE svg PUBLIC "-//W3C//DTD SVG 20010904//EN"
 "http://www.w3.org/TR/2001/REC-SVG-20010904/DTD/svg10.dtd">
<svg version="1.0" xmlns="http://www.w3.org/2000/svg"
 width="204.000000pt" height="204.000000pt" viewBox="0 0 204.000000 204.000000"
 preserveAspectRatio="xMidYMid meet">
<metadata>
Created by potrace 1.13, written by Peter Selinger 2001-2015
</metadata>
<g transform="translate(0.000000,204.000000) scale(0.100000,-0.100000)"
fill="#000000" stroke="none">
<path d="M0 1020 l0 -1020 1020 0 1020 0 0 1020 0 1020 -1020 0 -1020 0 0
-1020z m630 700 c0 -29 -2 -30 -45 -30 l-44 0 -3 -215 -3 -214 45 -3 c43 -3
45 -5 45 -33 l0 -30 -125 0 -125 0 -3 33 -3 32 48 0 48 0 0 215 0 215 -47 0
c-47 0 -48 1 -48 30 l0 30 130 0 130 0 0 -30z m65 -980 c180 -180 189 -191
172 -207 -16 -16 -20 -15 -67 32 l-50 49 0 -187 0 -187 -250 0 -250 0 0 185
c0 102 -2 185 -5 185 -2 0 -25 -21 -50 -47 -43 -43 -47 -45 -63 -30 -15 16 -4
29 173 207 104 105 192 190 195 190 3 0 91 -85 195 -190z m908 140 c81 -21
150 -40 153 -43 6 -6 74 -480 74 -518 0 -74 -162 -139 -230 -92 -35 24 -40 33
-40 76 0 99 85 151 183 112 14 -6 17 -2 17 21 -1 44 -26 224 -32 230 -8 7
-220 64 -242 64 -20 0 -19 -21 6 -269 9 -96 9 -105 -9 -130 -24 -32 -98 -70
-139 -71 -112 -1 -159 95 -88 179 30 36 78 48 136 33 23 -6 43 -10 44 -9 1 1
-7 97 -17 212 -24 278 -25 257 9 249 15 -4 94 -24 175 -44z"/>
<path d="M392 767 c-56 -56 -102 -106 -102 -110 0 -4 92 -7 205 -7 113 0 205
3 205 7 0 6 -189 205 -200 211 -3 1 -51 -44 -108 -101z"/>
<path d="M300 445 l0 -155 200 0 200 0 0 155 0 155 -200 0 -200 0 0 -155z"/>
</g>
</svg>
